cl1 = 1;
Point(1) = {0, 0, 0, cl1};
Point(2) = {-1, -1, -1, cl1};
Point(3) = {-1, 1, -1, cl1};
Point(4) = {1, 1, -1, cl1};
Point(5) = {1, -1, -1, cl1};
Point(6) = {1, -1, 1, cl1};
Point(7) = {1, 1, 1, cl1};
Point(8) = {-1, 1, 1, cl1};
Point(9) = {-1, -1, 1, cl1};
Line(1) = {8, 7};
Line(2) = {7, 6};
Line(3) = {6, 9};
Line(4) = {9, 8};
Line(5) = {8, 3};
Line(6) = {3, 4};
Line(7) = {4, 5};
Line(8) = {5, 2};
Line(9) = {2, 3};
Line(10) = {7, 4};
Line(11) = {5, 6};
Line(12) = {9, 2};
Line Loop(14) = {6, -10, -1, 5};
Plane Surface(14) = {14};
Line Loop(16) = {9, -5, -4, 12};
Plane Surface(16) = {16};
Line Loop(18) = {3, 12, -8, 11};
Plane Surface(18) = {18};
Line Loop(20) = {11, -2, 10, 7};
Plane Surface(20) = {20};
Line Loop(22) = {2, 3, 4, 1};
Plane Surface(22) = {22};
Line Loop(24) = {6, 7, 8, 9};
Plane Surface(24) = {24};
Surface Loop(27) = {24, 14, 20, 18, 22, 16};
Volume(27) = {27};
Physical Surface("Cube") = {14, 16, 18, 20, 22, 24};
